<?xml version="1.0" encoding="UTF-8"?>
<svg version="1.1" xmlns="http://www.w3.org/2000/svg" width="709" height="709">
<path d="M0 0 C0.82376129 -0.00067474 1.64752258 -0.00134949 2.49624634 -0.00204468 C48.9666452 0.05773977 97.12552476 8.64679299 139.55859375 28.15625 C142.2504289 29.41462616 142.2504289 29.41462616 146.0625 30.25 C146.0625 68.2 146.0625 106.15 146.0625 145.25 C136.42379127 139.89516182 136.42379127 139.89516182 131.75415039 136.81420898 C100.967616 116.66084129 64.43199489 105.41984847 28.0625 101.25 C27.24305908 101.1557373 26.42361816 101.06147461 25.5793457 100.96435547 C17.72774766 100.15434471 9.88866524 100.00695016 2 100 C1.30407745 99.99932526 0.60815491 99.99865051 -0.1088562 99.99795532 C-38.85061136 100.05699185 -76.17842815 109.15122563 -110.9375 126.25 C-111.90888916 126.71841309 -111.90888916 126.71841309 -112.89990234 127.19628906 C-136.5199592 138.68110034 -157.12551916 155.13304308 -175.9375 173.25 C-176.7315625 174.0028125 -177.525625 174.755625 -178.34375 175.53125 C-183.69386082 180.71151603 -188.3211093 186.41593029 -192.9375 192.25 C-193.71996094 193.21550781 -194.50242188 194.18101562 -195.30859375 195.17578125 C-222.58831125 229.52640153 -239.5378923 270.98798448 -245.9375 314.25 C-246.11321533 315.38139404 -246.11321533 315.38139404 -246.29248047 316.53564453 C-253.67382335 365.66051048 -243.70994445 416.99010482 -221.9375 461.25 C-221.46908691 462.22138916 -221.46908691 462.22138916 -220.99121094 463.21240234 C-209.50639966 486.8324592 -193.05445692 507.43801916 -174.9375 526.25 C-174.1846875 527.0440625 -173.431875 527.838125 -172.65625 528.65625 C-167.47598397 534.00636082 -161.77156971 538.6336093 -155.9375 543.25 C-154.97199219 544.03246094 -154.00648438 544.81492187 -153.01171875 545.62109375 C-118.66109847 572.90081125 -77.19951552 589.8503923 -33.9375 596.25 C-33.1832373 596.36714355 -32.42897461 596.48428711 -31.65185547 596.60498047 C17.42091572 603.97849576 68.87001036 594.0819476 113.0625 572.25 C114.06579346 571.75765869 114.06579346 571.75765869 115.08935547 571.25537109 C124.41840178 566.62257939 133.09968206 561.12898829 141.7734375 555.375 C145.0625 553.25 145.0625 553.25 146.0625 553.25 C146.0625 591.53 146.0625 629.81 146.0625 669.25 C121.33555675 679.84726139 121.33555675 679.84726139 112.0625 682.875 C110.38619507 683.42546997 110.38619507 683.42546997 108.67602539 683.98706055 C87.24660163 690.85144023 65.37798114 695.47053036 43.0625 698.25 C42.15532227 698.36714355 41.24814453 698.48428711 40.31347656 698.60498047 C-45.37565769 709.23321256 -138.67267626 685.05078662 -207.25 632.375 C-209.83119839 630.35600077 -212.38844062 628.30934558 -214.9375 626.25 C-215.98151358 625.41894755 -217.0257668 624.58819603 -218.0703125 623.7578125 C-224.22572231 618.80262187 -230.09872957 613.57141102 -235.9375 608.25 C-236.7728125 607.5075 -237.608125 606.765 -238.46875 606 C-246.84306752 598.55616221 -254.68073493 590.78737067 -261.9375 582.25 C-262.74832031 581.31671875 -263.55914062 580.3834375 -264.39453125 579.421875 C-318.96790504 516.2714075 -349.12529416 434.71155586 -349.1875 351.3125 C-349.18817474 350.48873871 -349.18884949 349.66497742 -349.18954468 348.81625366 C-349.09054202 271.86157691 -323.48513633 194.34229761 -274.9375 134.25 C-274.10644755 133.20598642 -273.27569603 132.1617332 -272.4453125 131.1171875 C-267.49012187 124.96177769 -262.25891102 119.08877043 -256.9375 113.25 C-256.195 112.4146875 -255.4525 111.579375 -254.6875 110.71875 C-247.24366221 102.34443248 -239.47487067 94.50676507 -230.9375 87.25 C-230.00421875 86.43917969 -229.0709375 85.62835938 -228.109375 84.79296875 C-164.9589075 30.21959496 -83.39905586 0.06220584 0 0 Z " fill="#2D5682" transform="translate(438.9375,4.75)"/>
<path d="M0 0 C24.75 0 49.5 0 75 0 C75.01458252 9.20269775 75.02916504 18.40539551 75.04418945 27.88696289 C75.09294048 57.32738615 75.15634778 86.7677615 75.22898628 116.20813513 C75.24025453 120.78060218 75.25139297 125.35306954 75.26245117 129.92553711 C75.26465486 130.83583844 75.26685854 131.74613977 75.269129 132.684026 C75.30450766 147.42620173 75.32936859 162.16837741 75.35034702 176.91057987 C75.37210453 192.03586365 75.4051545 207.16109231 75.44870156 222.28632921 C75.47521911 231.62046183 75.49291372 240.95452576 75.49934604 250.2886942 C75.5045996 256.68826595 75.52081551 263.08775125 75.54566566 269.48727668 C75.55968176 273.18024697 75.56885108 276.87306247 75.56500816 280.56606102 C75.56096741 284.57061829 75.58000371 288.57473618 75.60127258 292.57923889 C75.59642501 293.74558823 75.59157743 294.91193757 75.58658296 296.11363083 C75.63900588 302.08057103 75.69507797 306.91117044 79 312 C83.57683637 314.44712455 88.41791665 314.29108616 93.50411987 314.2784729 C94.76750205 314.2871615 94.76750205 314.2871615 96.05640709 314.29602563 C98.87081442 314.3129933 101.68505743 314.31589936 104.49951172 314.31884766 C106.52007955 314.32814806 108.54064355 314.3383169 110.561203 314.34928894 C116.04206972 314.37659031 121.52291073 314.39173882 127.00382757 314.40471697 C132.73338615 314.42034685 138.46289223 314.44713755 144.19241333 314.4727478 C155.04010455 314.51953806 165.88780565 314.55628102 176.73554623 314.58942068 C189.08614791 314.62764027 201.43669686 314.67705089 213.7872541 314.72740483 C239.19146865 314.83072841 264.59570537 314.91851015 290 315 C290 339.75 290 364.5 290 390 C258.13503239 390.17181724 226.27006678 390.33619911 194.4049825 390.48431293 C190.63766375 390.50183331 186.87034542 390.51944356 183.10302734 390.53710938 C182.35306477 390.54062461 181.60310219 390.54413985 180.83041348 390.5477616 C168.70863423 390.60479298 156.58690401 390.66909383 144.46517633 390.736111 C132.01466376 390.80478298 119.56413042 390.86557376 107.11354363 390.91914403 C99.4392376 390.95240926 91.76501259 390.9917226 84.09077944 391.03892837 C78.19277247 391.07454746 72.29475066 391.09916795 66.3966713 391.11981392 C63.98692312 391.1299395 61.57718654 391.14355829 59.16748047 391.16103554 C24.99918724 391.40329911 24.99918724 391.40329911 10.75 381.8125 C-1.91229862 368.86242186 -1.17044536 352.23822984 -1.08229065 335.26959229 C-1.07858823 333.81555655 -1.07534117 332.36151959 -1.07250541 330.90748191 C-1.06347725 326.94401907 -1.04805573 322.9806038 -1.03152263 319.01716614 C-1.01478722 314.73104924 -1.00407706 310.44491662 -0.99261475 306.15878296 C-0.97196882 298.74339714 -0.94755205 291.32803155 -0.92053413 283.91266632 C-0.88147684 273.19144857 -0.84816861 262.47021894 -0.81623887 251.74897787 C-0.76427311 234.35216901 -0.7076932 216.95537836 -0.64819336 199.55859375 C-0.59042348 182.66472074 -0.53483802 165.77084286 -0.48217773 148.87695312 C-0.47892802 147.83465735 -0.4756783 146.79236158 -0.4723301 145.71848109 C-0.45603976 140.48930388 -0.43979223 135.26012653 -0.42356598 130.03094912 C-0.28901432 86.68727598 -0.14611331 43.34363601 0 0 Z " fill="#ADCBEB" transform="translate(295,158)"/>
<path d="M0 0 C24.75 0 49.5 0 75 0 C75 63.69 75 127.38 75 193 C75.66 193 76.32 193 77 193 C77 194.32 77 195.64 77 197 C77.99 197 78.98 197 80 197 C80 197.66 80 198.32 80 199 C129.5 199.495 129.5 199.495 180 200 C180 224.75 180 249.5 180 275 C153.12264121 275.24956592 153.12264121 275.24956592 141.44335938 275.35546875 C133.55166828 275.42703561 125.65998058 275.49889209 117.76831055 275.57275391 C102.97397991 275.71090701 88.17963095 275.83913095 73.3850708 275.95019531 C69.3913254 275.98042931 65.39765756 276.01437277 61.4039917 276.05371094 C57.46288797 276.09249055 53.52184967 276.12232102 49.58061028 276.14305115 C47.62640242 276.15561323 45.67226651 276.17818643 43.71815491 276.20129395 C30.72907354 276.2445285 18.75883252 274.67854794 9.07233524 265.32369423 C-1.687876 253.2583487 -0.9678837 239.84976245 -0.79467773 224.55322266 C-0.79270042 222.09798744 -0.79381701 219.64274808 -0.79777527 217.18751526 C-0.79936192 211.92676924 -0.77969489 206.66657299 -0.7401104 201.40599442 C-0.68291792 193.80040127 -0.66495966 186.19510102 -0.65619446 178.58931617 C-0.64092111 166.24589992 -0.59446551 153.90280978 -0.52807617 141.55957031 C-0.46370038 129.57814145 -0.41421178 117.59680156 -0.38452148 105.61523438 C-0.38268242 104.8751506 -0.38084336 104.13506683 -0.37894856 103.37255628 C-0.36981248 99.65931198 -0.36096672 95.94606705 -0.35226524 92.2328217 C-0.27984483 61.48826257 -0.15087967 30.74430287 0 0 Z " fill="#A3C3E5" transform="translate(405,158)"/>
<path d="M0 0 C0.33 0 0.66 0 1 0 C1.13535156 0.60585938 1.27070313 1.21171875 1.41015625 1.8359375 C4.0842688 12.24416001 9.27191661 19.66886107 18.3515625 25.4765625 C40.18742925 38.03701683 65.09802534 38.29468712 89.62768555 38.31884766 C91.82750812 38.32817077 94.02732724 38.33834287 96.22714233 38.34928894 C102.13697845 38.37633469 108.04679108 38.39166196 113.95667243 38.40471697 C120.15594121 38.4204601 126.35516279 38.44721401 132.55439758 38.4727478 C144.2658073 38.51933918 155.97722609 38.55617771 167.68868047 38.58942068 C177.04841224 38.61632615 186.40811719 38.64774762 195.76782227 38.68261719 C196.75948467 38.68630951 196.75948467 38.68630951 197.77118065 38.69007643 C201.08848674 38.70245296 204.4057925 38.71491346 207.72309816 38.72740483 C235.14870114 38.83043221 262.57432451 38.91833348 290 39 C290 63.75 290 88.5 290 114 C258.13503239 114.17181724 226.27006678 114.33619911 194.4049825 114.48431293 C190.63766375 114.50183331 186.87034542 114.51944356 183.10302734 114.53710938 C181.97808348 114.54238223 181.97808348 114.54238223 180.83041348 114.5477616 C168.70863423 114.60479298 156.58690401 114.66909383 144.46517633 114.736111 C132.01466376 114.80478298 119.56413042 114.86557376 107.11354363 114.91914403 C99.4392376 114.95240926 91.76501259 114.9917226 84.09077944 115.03892837 C78.19277247 115.07454746 72.29475066 115.09916795 66.3966713 115.11981392 C63.98692312 115.1299395 61.57718654 115.14355829 59.16748047 115.16103554 C24.99918724 115.40329911 24.99918724 115.40329911 10.75 105.8125 C-0.27118237 94.54083621 -1.16078651 80.86507133 -1.02172852 65.84472656 C-0.98433756 62.77648637 -0.93243011 59.70861984 -0.87890625 56.640625 C-0.8545451 54.99868508 -0.83070479 53.35673736 -0.80735779 51.71478271 C-0.74511213 47.43390886 -0.67588343 43.15317662 -0.60510254 38.87243652 C-0.53387461 34.48793885 -0.46938583 30.10334234 -0.40429688 25.71875 C-0.27605411 17.14572373 -0.14041961 8.57283544 0 0 Z " fill="#4C7EB4" transform="translate(295,434)"/>
<path d="M0 0 C0.30615234 0.61262695 0.61230469 1.22525391 0.92773438 1.85644531 C7.44286956 14.88078204 15.49381583 21.84783642 29.23046875 26.75390625 C50.02150996 33.62679967 72.09646587 33.30990869 93.76953125 33.4140625 C96.27301129 33.43282383 98.77648534 33.4524007 101.279953 33.4727478 C107.79475328 33.52355134 114.30957395 33.56345038 120.82446289 33.60089111 C128.68105641 33.64838659 136.53755163 33.70975737 144.39406586 33.76873779 C156.26267028 33.85631673 168.13126213 33.92653331 180 34 C180 58.75 180 83.5 180 109 C153.12264121 109.24956592 153.12264121 109.24956592 141.44335938 109.35546875 C133.55166828 109.42703561 125.65998058 109.49889209 117.76831055 109.57275391 C102.97397991 109.71090701 88.17963095 109.83913095 73.3850708 109.95019531 C69.3913254 109.98042931 65.39765756 110.01437277 61.4039917 110.05371094 C57.46288797 110.09249055 53.52184967 110.12232102 49.58061028 110.14305115 C47.62640242 110.15561323 45.67226651 110.17818643 43.71815491 110.20129395 C30.69900048 110.2446286 18.81503377 108.65335082 9.07276917 99.34292603 C-0.50754104 88.51395457 -0.974072 77.20959324 -0.68359375 63.4765625 C-0.670505 61.63571067 -0.66055636 59.79483412 -0.65357971 57.95394897 C-0.62711132 53.15627289 -0.55857894 48.36012857 -0.48065186 43.56304932 C-0.40847821 38.64901439 -0.3769537 33.73472698 -0.34179688 28.8203125 C-0.2671817 19.21287613 -0.1480331 9.60656643 0 0 Z " fill="#4879AE" transform="translate(405,324)"/>
</svg>
